<svg width="48" height="48" viewBox="0 0 48 48" fill="none" xmlns="http://www.w3.org/2000/svg">
<path d="M29.5 26C30.3284 26 31 25.3284 31 24.5C31 23.6716 30.3284 23 29.5 23C28.6716 23 28 23.6716 28 24.5C28 25.3284 28.6716 26 29.5 26Z" fill="#464A4D"/>
<path d="M24 26C24.8284 26 25.5 25.3284 25.5 24.5C25.5 23.6716 24.8284 23 24 23C23.1716 23 22.5 23.6716 22.5 24.5C22.5 25.3284 23.1716 26 24 26Z" fill="#464A4D"/>
<path d="M18.5 26C19.3284 26 20 25.3284 20 24.5C20 23.6716 19.3284 23 18.5 23C17.6716 23 17 23.6716 17 24.5C17 25.3284 17.6716 26 18.5 26Z" fill="#464A4D"/>
</svg>
