<svg width="22" height="22" viewBox="0 0 22 22" fill="none" xmlns="http://www.w3.org/2000/svg">
<path fill-rule="evenodd" clip-rule="evenodd" d="M11.6437 2.69061C11.4966 2.48057 11.2564 2.35547 11 2.35547C10.7436 2.35547 10.5034 2.48057 10.3563 2.69061L5.39338 9.78053L1.3413 5.72846C1.11658 5.50375 0.778635 5.43652 0.485034 5.55813C0.191433 5.67975 0 5.96625 0 6.28404V16.4983C0 17.3318 0.331122 18.1312 0.920521 18.7206C1.50992 19.3101 2.30932 19.6412 3.14286 19.6412H18.8571C19.6906 19.6412 20.49 19.3101 21.0795 18.7206C21.6689 18.1312 22 17.3318 22 16.4983V6.28404C22 5.96625 21.8086 5.67975 21.5149 5.55813C21.2214 5.43652 20.8833 5.50375 20.6586 5.72846L16.6067 9.78053L11.6437 2.69061Z" fill="#C8D700"/>
</svg>
