<svg width="12" height="12" viewBox="0 0 12 12" fill="none" xmlns="http://www.w3.org/2000/svg">
<path d="M11.5188 4.4625C11.4688 4.2625 11.3188 4.1625 11.1188 4.1125L7.91875 3.6625L6.46875 0.7625C6.31875 0.4125 5.71875 0.4125 5.56875 0.7625L4.11875 3.6625L0.91875 4.1125C0.71875 4.1125 0.56875 4.2625 0.51875 4.4625C0.46875 4.6625 0.51875 4.8625 0.66875 4.9625L2.96875 7.2125L2.41875 10.4125C2.41875 10.6125 2.41875 10.8125 2.61875 10.9125C2.76875 11.0125 2.96875 11.0625 3.16875 10.9125L6.01875 9.4125L8.86875 10.9125C8.91875 10.9125 9.01875 10.9625 9.11875 10.9625C9.21875 10.9625 9.31875 10.9625 9.41875 10.8625C9.56875 10.7625 9.66875 10.5625 9.61875 10.3625L9.06875 7.1625L11.3688 4.9125C11.5188 4.7625 11.5688 4.5625 11.5188 4.4125V4.4625Z" fill="#E3B536"/>
</svg>
