<svg width="40" height="40" viewBox="0 0 40 40" fill="none" xmlns="http://www.w3.org/2000/svg">
<circle cx="20" cy="20" r="19.75" fill="white" stroke="white" stroke-width="0.5"/>
<path fill-rule="evenodd" clip-rule="evenodd" d="M19.75 11.5C15.1937 11.5 11.5 15.1937 11.5 19.75C11.5 24.3063 15.1937 28 19.75 28C24.3063 28 28 24.3063 28 19.75C28 15.1937 24.3063 11.5 19.75 11.5ZM10 19.75C10 14.3652 14.3652 10 19.75 10C25.1348 10 29.5 14.3652 29.5 19.75C29.5 25.1348 25.1348 29.5 19.75 29.5C14.3652 29.5 10 25.1348 10 19.75Z" fill="#464A4D"/>
<path fill-rule="evenodd" clip-rule="evenodd" d="M20.5 10.75V16.75H19V10.75H20.5Z" fill="#464A4D"/>
<path fill-rule="evenodd" clip-rule="evenodd" d="M20.5 22.75V28.75H19V22.75H20.5Z" fill="#464A4D"/>
<path fill-rule="evenodd" clip-rule="evenodd" d="M28.75 20.5H22.75V19H28.75V20.5Z" fill="#464A4D"/>
<path fill-rule="evenodd" clip-rule="evenodd" d="M16.75 20.5H10.75V19H16.75V20.5Z" fill="#464A4D"/>
</svg>
