<svg width="105" height="27" viewBox="0 0 105 27" fill="none" xmlns="http://www.w3.org/2000/svg">
<path d="M1.624 26.096C1.432 26.096 1.26133 26.032 1.112 25.904C0.984 25.7547 0.92 25.584 0.92 25.392V1.904C0.92 1.43467 1.15467 1.2 1.624 1.2H6.168C6.57333 1.2 6.84 1.33867 6.968 1.616L12.92 14.128L18.84 1.616C18.9893 1.33867 19.2453 1.2 19.608 1.2H24.216C24.6853 1.2 24.92 1.43467 24.92 1.904V25.392C24.92 25.584 24.8453 25.7547 24.696 25.904C24.568 26.032 24.408 26.096 24.216 26.096H19.544C19.352 26.096 19.1813 26.032 19.032 25.904C18.904 25.7547 18.84 25.584 18.84 25.392V14.128L13.944 23.664C13.8587 23.8347 13.72 23.9733 13.528 24.08C13.336 24.1653 13.1333 24.208 12.92 24.208C12.6853 24.208 12.472 24.1653 12.28 24.08C12.088 23.9733 11.9493 23.8347 11.864 23.664L7 14.16V25.392C7 25.584 6.92533 25.7547 6.776 25.904C6.648 26.032 6.488 26.096 6.296 26.096H1.624ZM2.424 3.408C2.424 3.728 2.488 4.05867 2.616 4.4C2.744 4.74133 2.86133 4.912 2.968 4.912C3.07467 4.912 3.192 4.74133 3.32 4.4C3.448 4.05867 3.512 3.728 3.512 3.408C3.512 2.832 3.33067 2.544 2.968 2.544C2.60533 2.544 2.424 2.832 2.424 3.408ZM20.344 3.408C20.344 3.728 20.408 4.05867 20.536 4.4C20.664 4.74133 20.7813 4.912 20.888 4.912C20.9947 4.912 21.112 4.74133 21.24 4.4C21.368 4.05867 21.432 3.728 21.432 3.408C21.432 2.832 21.2507 2.544 20.888 2.544C20.5253 2.544 20.344 2.832 20.344 3.408ZM27.8038 17.264C27.8038 14.4907 28.4864 12.2827 29.8518 10.64C31.2171 8.99733 33.1904 8.176 35.7718 8.176C37.4144 8.176 38.9931 8.54933 40.5078 9.296C42.0224 10.0427 43.2384 11.0987 44.1558 12.464C45.0944 13.8293 45.5638 15.376 45.5638 17.104C45.5638 18.832 45.0838 20.4 44.1238 21.808C43.1638 23.1947 41.9158 24.2827 40.3798 25.072C38.8438 25.8613 37.2544 26.256 35.6118 26.256C33.1371 26.256 31.2171 25.4453 29.8518 23.824C28.4864 22.2027 27.8038 20.016 27.8038 17.264ZM30.8118 12.784C30.8118 13.104 30.8758 13.4347 31.0038 13.776C31.1318 14.1173 31.2491 14.288 31.3558 14.288C31.4624 14.288 31.5798 14.1173 31.7078 13.776C31.8358 13.4347 31.8998 13.104 31.8998 12.784C31.8998 12.208 31.7184 11.92 31.3558 11.92C30.9931 11.92 30.8118 12.208 30.8118 12.784ZM33.3078 17.104C33.3078 18.32 33.5638 19.2587 34.0758 19.92C34.6091 20.56 35.3878 20.88 36.4118 20.88C37.3504 20.88 38.1718 20.5387 38.8758 19.856C39.5798 19.1733 39.9318 18.2667 39.9318 17.136C39.9318 16.0053 39.5798 15.088 38.8758 14.384C38.1718 13.68 37.3504 13.328 36.4118 13.328C35.3878 13.328 34.6091 13.6693 34.0758 14.352C33.5638 15.0133 33.3078 15.9307 33.3078 17.104ZM65.4828 17.68C65.4828 19.4507 65.1521 20.9867 64.4908 22.288C63.8294 23.568 62.9121 24.5493 61.7388 25.232C60.5868 25.9147 59.2854 26.256 57.8348 26.256C57.0241 26.256 56.1921 26.0747 55.3388 25.712C54.4854 25.328 53.8988 24.9227 53.5788 24.496V25.424C53.5788 25.5947 53.5041 25.7547 53.3548 25.904C53.2268 26.032 53.0668 26.096 52.8748 26.096H48.5228C48.3308 26.096 48.1601 26.032 48.0108 25.904C47.8828 25.7547 47.8188 25.584 47.8188 25.392V0.943998C47.8188 0.474665 48.0534 0.239998 48.5228 0.239998H52.8748C53.3441 0.239998 53.5788 0.474665 53.5788 0.943998V10.256C53.8774 9.808 54.4534 9.424 55.3068 9.104C56.1814 8.784 57.0988 8.624 58.0588 8.624C60.5121 8.624 62.3574 9.424 63.5948 11.024C64.8534 12.6027 65.4828 14.8213 65.4828 17.68ZM49.3228 2.448C49.3228 2.768 49.3868 3.09867 49.5148 3.44C49.6428 3.78133 49.7601 3.952 49.8668 3.952C49.9734 3.952 50.0908 3.78133 50.2188 3.44C50.3468 3.09867 50.4108 2.768 50.4108 2.448C50.4108 1.872 50.2294 1.584 49.8668 1.584C49.5041 1.584 49.3228 1.872 49.3228 2.448ZM53.5788 17.328C53.5788 18.0107 53.7494 18.6293 54.0908 19.184C54.4534 19.7173 54.9121 20.1333 55.4668 20.432C56.0428 20.7307 56.6294 20.88 57.2268 20.88C58.1228 20.88 58.8054 20.56 59.2748 19.92C59.7441 19.28 59.9788 18.416 59.9788 17.328C59.9788 16.24 59.7441 15.376 59.2748 14.736C58.8054 14.096 58.1228 13.776 57.2268 13.776C56.6294 13.776 56.0428 13.9253 55.4668 14.224C54.9121 14.5227 54.4534 14.9493 54.0908 15.504C53.7494 16.0373 53.5788 16.6453 53.5788 17.328ZM61.6108 12.816C61.6108 13.136 61.6748 13.4667 61.8028 13.808C61.9308 14.1493 62.0481 14.32 62.1548 14.32C62.2614 14.32 62.3788 14.1493 62.5068 13.808C62.6348 13.4667 62.6988 13.136 62.6988 12.816C62.6988 12.24 62.5174 11.952 62.1548 11.952C61.7921 11.952 61.6108 12.24 61.6108 12.816ZM69.2855 26.096C69.0935 26.096 68.9228 26.032 68.7735 25.904C68.6455 25.7547 68.5815 25.584 68.5815 25.392V9.104C68.5815 8.63467 68.8162 8.4 69.2855 8.4H73.6375C74.1068 8.4 74.3415 8.63467 74.3415 9.104V25.392C74.3415 25.584 74.2668 25.7547 74.1175 25.904C73.9895 26.032 73.8295 26.096 73.6375 26.096H69.2855ZM68.0375 3.28C68.0375 2.40533 68.2935 1.68 68.8055 1.104C69.3175 0.527998 70.0322 0.239998 70.9495 0.239998C71.5255 0.239998 72.1122 0.378665 72.7095 0.655998C73.3282 0.933332 73.8402 1.30667 74.2455 1.776C74.6508 2.24533 74.8535 2.74667 74.8535 3.28C74.8535 3.81333 74.6508 4.31466 74.2455 4.784C73.8402 5.232 73.3282 5.59467 72.7095 5.872C72.1122 6.14933 71.5255 6.288 70.9495 6.288C70.0322 6.288 69.3175 6.01067 68.8055 5.456C68.2935 4.88 68.0375 4.15467 68.0375 3.28ZM70.0855 10.608C70.0855 10.928 70.1495 11.2587 70.2775 11.6C70.4055 11.9413 70.5228 12.112 70.6295 12.112C70.7362 12.112 70.8535 11.9413 70.9815 11.6C71.1095 11.2587 71.1735 10.928 71.1735 10.608C71.1735 10.032 70.9922 9.744 70.6295 9.744C70.2668 9.744 70.0855 10.032 70.0855 10.608ZM70.1175 2.768C70.1175 3.00267 70.1708 3.23733 70.2775 3.472C70.3842 3.70667 70.5015 3.824 70.6295 3.824C70.7575 3.824 70.8748 3.70667 70.9815 3.472C71.0882 3.23733 71.1415 3.00267 71.1415 2.768C71.1415 2.55467 71.0882 2.39466 70.9815 2.288C70.8962 2.16 70.7788 2.096 70.6295 2.096C70.4802 2.096 70.3522 2.16 70.2455 2.288C70.1602 2.39466 70.1175 2.55467 70.1175 2.768ZM80.1168 3.952C80.2234 3.952 80.3408 3.78133 80.4688 3.44C80.5968 3.09867 80.6608 2.768 80.6608 2.448C80.6608 1.872 80.4794 1.584 80.1168 1.584C79.7541 1.584 79.5728 1.872 79.5728 2.448C79.5728 2.768 79.6368 3.09867 79.7648 3.44C79.8928 3.78133 80.0101 3.952 80.1168 3.952ZM78.0688 0.943998C78.0688 0.474665 78.3034 0.239998 78.7728 0.239998H83.1248C83.5941 0.239998 83.8288 0.474665 83.8288 0.943998V19.024C83.8288 19.7493 83.9674 20.2507 84.2448 20.528C84.5434 20.8053 85.0127 20.944 85.6528 20.944H85.8767C86.3034 20.944 86.5168 21.1573 86.5168 21.584V25.456C86.5168 25.8827 86.3034 26.096 85.8767 26.096L84.8528 26.128C82.6554 26.192 80.9701 25.68 79.7968 24.592C78.6448 23.4827 78.0688 21.904 78.0688 19.856V0.943998ZM91.3558 14.288C91.4624 14.288 91.5798 14.1173 91.7078 13.776C91.8358 13.4347 91.8998 13.104 91.8998 12.784C91.8998 12.208 91.7184 11.92 91.3558 11.92C90.9931 11.92 90.8118 12.208 90.8118 12.784C90.8118 13.104 90.8758 13.4347 91.0038 13.776C91.1318 14.1173 91.2491 14.288 91.3558 14.288ZM87.8038 17.264C87.8038 14.4907 88.4864 12.2827 89.8518 10.64C91.2171 8.99733 93.2011 8.176 95.8038 8.176C97.4678 8.176 98.9611 8.53867 100.284 9.264C101.628 9.98933 102.673 11.1093 103.42 12.624C104.188 14.1387 104.529 16.016 104.444 18.256C104.444 18.4693 104.38 18.6293 104.252 18.736C104.145 18.8427 103.996 18.896 103.804 18.896L93.2438 18.96C93.2864 19.7707 93.5744 20.4107 94.1078 20.88C94.6624 21.3493 95.3984 21.584 96.3158 21.584C97.1904 21.584 98.0331 21.4453 98.8438 21.168C99.6544 20.8907 100.326 20.5493 100.86 20.144C101.03 20.016 101.19 19.952 101.34 19.952C101.468 19.952 101.585 20.0053 101.692 20.112L103.9 22.448C104.177 22.7253 104.316 22.928 104.316 23.056C104.316 23.1413 104.262 23.2267 104.156 23.312C103.025 24.208 101.798 24.9227 100.476 25.456C99.1531 25.9893 97.5958 26.256 95.8038 26.256C93.2651 26.256 91.2918 25.456 89.8838 23.856C88.4971 22.2347 87.8038 20.0373 87.8038 17.264ZM98.9078 15.216C98.9078 14.64 98.6411 14.1067 98.1078 13.616C97.5744 13.104 96.9238 12.848 96.1558 12.848C95.2811 12.848 94.5984 13.0613 94.1078 13.488C93.6171 13.9147 93.3291 14.4907 93.2438 15.216H98.9078Z" fill="black"/>
</svg>
