<svg width="42" height="27" viewBox="0 0 42 27" fill="none" xmlns="http://www.w3.org/2000/svg">
<path d="M1.624 26.096C1.432 26.096 1.26133 26.032 1.112 25.904C0.984 25.7547 0.92 25.584 0.92 25.392V1.904C0.92 1.43467 1.15467 1.2 1.624 1.2H7.16C11.5547 1.2 14.7653 1.936 16.792 3.408C18.84 4.88 19.864 7.03467 19.864 9.872C19.864 12.56 18.7867 14.6827 16.632 16.24C14.4987 17.7973 11.288 18.6187 7 18.704V25.392C7 25.584 6.92533 25.7547 6.776 25.904C6.648 26.032 6.488 26.096 6.296 26.096H1.624ZM2.424 3.408C2.424 3.728 2.488 4.05867 2.616 4.4C2.744 4.74133 2.86133 4.912 2.968 4.912C3.07467 4.912 3.192 4.74133 3.32 4.4C3.448 4.05867 3.512 3.728 3.512 3.408C3.512 2.832 3.33067 2.544 2.968 2.544C2.60533 2.544 2.424 2.832 2.424 3.408ZM7 13.2C7.08533 13.2213 7.20267 13.232 7.352 13.232C9.592 13.232 11.192 12.944 12.152 12.368C13.112 11.792 13.592 11.0347 13.592 10.096C13.592 9.02933 13.1227 8.21867 12.184 7.664C11.2453 7.10933 9.63467 6.832 7.352 6.832H7V13.2ZM28.1085 5.936C28.2152 5.936 28.3325 5.76533 28.4605 5.424C28.5885 5.08267 28.6525 4.752 28.6525 4.432C28.6525 3.856 28.4712 3.568 28.1085 3.568C27.7458 3.568 27.5645 3.856 27.5645 4.432C27.5645 4.752 27.6285 5.08267 27.7565 5.424C27.8845 5.76533 28.0018 5.936 28.1085 5.936ZM22.0925 13.712C22.0925 9.68 22.9565 6.512 24.6845 4.208C26.4125 1.88267 28.8872 0.719999 32.1085 0.719999C35.2232 0.719999 37.8578 1.616 40.0125 3.408C40.1832 3.51467 40.2685 3.67467 40.2685 3.888C40.2685 4.05867 40.2152 4.19733 40.1085 4.304L37.3245 7.792C37.1965 7.96267 37.0472 8.048 36.8765 8.048C36.7485 8.048 36.5992 7.99467 36.4285 7.888C35.8952 7.504 35.2978 7.20533 34.6365 6.992C33.9965 6.77867 33.3352 6.672 32.6525 6.672C29.6658 6.672 28.1725 9.02933 28.1725 13.744C28.1725 16.0267 28.5458 17.776 29.2925 18.992C30.0392 20.208 31.1592 20.816 32.6525 20.816C33.3138 20.816 34.0178 20.6347 34.7645 20.272C35.5112 19.888 36.1725 19.4293 36.7485 18.896C36.9192 18.7253 37.0898 18.64 37.2605 18.64C37.3885 18.64 37.5165 18.704 37.6445 18.832L41.0365 21.84C41.2498 22.032 41.3565 22.2027 41.3565 22.352C41.3565 22.4587 41.3032 22.5867 41.1965 22.736C40.1938 23.9093 38.8712 24.848 37.2285 25.552C35.6072 26.256 33.8792 26.608 32.0445 26.608C29.9752 26.608 28.1938 26.0853 26.7005 25.04C25.2072 23.9947 24.0658 22.512 23.2765 20.592C22.4872 18.6507 22.0925 16.3573 22.0925 13.712Z" fill="white"/>
</svg>
