<svg width="24" height="24" viewBox="0 0 24 24" fill="none" xmlns="http://www.w3.org/2000/svg">
<path fill-rule="evenodd" clip-rule="evenodd" d="M3.25 10.1C3.25 5.61593 7.15627 1.25 12 1.25C14.4388 1.25 16.6267 2.38535 18.1935 4.0332C19.7568 5.67734 20.75 7.88136 20.75 10.1C20.75 12.3612 19.6161 14.3302 18.0872 16.2541C17.3185 17.2213 16.4265 18.2052 15.4905 19.2269C15.3973 19.3287 15.3035 19.4309 15.2094 19.5336C14.3534 20.4672 13.4622 21.4391 12.5712 22.4861C12.4287 22.6535 12.2199 22.75 12 22.75C11.7801 22.75 11.5713 22.6535 11.4288 22.4861C10.5157 21.4132 9.60222 20.4241 8.72652 19.476C8.65455 19.3981 8.58284 19.3205 8.5114 19.2431C7.57598 18.2297 6.68338 17.2548 5.91435 16.2935C4.38178 14.3778 3.25 12.4095 3.25 10.1ZM12 2.75C8.04373 2.75 4.75 6.38407 4.75 10.1C4.75 11.8905 5.61823 13.5222 7.08565 15.3565C7.81662 16.2702 8.67402 17.2078 9.6136 18.2257C9.68571 18.3038 9.75828 18.3824 9.83128 18.4614C10.5258 19.2133 11.2588 20.0068 11.9997 20.8525C12.7174 20.0318 13.4277 19.2572 14.103 18.5208C14.1975 18.4177 14.2914 18.3153 14.3845 18.2137C15.3235 17.1886 16.1815 16.2412 16.9128 15.3209C18.3839 13.4698 19.25 11.8388 19.25 10.1C19.25 8.31864 18.4432 6.47266 17.1065 5.0668C15.7733 3.66465 13.9612 2.75 12 2.75Z" fill="#BDC3C7"/>
<path fill-rule="evenodd" clip-rule="evenodd" d="M8.25 10C8.25 7.88579 9.88579 6.25 12 6.25C14.1142 6.25 15.75 7.88579 15.75 10C15.75 12.1142 14.1142 13.75 12 13.75C9.88579 13.75 8.25 12.1142 8.25 10ZM12 7.75C10.7142 7.75 9.75 8.71421 9.75 10C9.75 11.2858 10.7142 12.25 12 12.25C13.2858 12.25 14.25 11.2858 14.25 10C14.25 8.71421 13.2858 7.75 12 7.75Z" fill="#BDC3C7"/>
</svg>
