<svg width="25" height="24" viewBox="0 0 25 24" fill="none" xmlns="http://www.w3.org/2000/svg">
<g opacity="0.7">
<path fill-rule="evenodd" clip-rule="evenodd" d="M8.90235 3.43707C9.7704 2.45834 11.0832 2 12.25 2C13.4477 2 14.6295 2.47754 15.5629 3.40235C16.5417 4.27041 17 5.58316 17 6.75C17 7.94772 16.5225 9.12946 15.5976 10.0629C14.7296 11.0417 13.4168 11.5 12.25 11.5C11.0523 11.5 9.87064 11.0225 8.93719 10.0978C7.96531 9.2371 7.5 8.02694 7.5 6.75C7.5 5.55228 7.97754 4.37054 8.90235 3.43707ZM12.25 3.5C11.4244 3.5 10.5466 3.83571 10.0144 4.44388L9.99799 4.46267L9.98033 4.48033C9.31649 5.14417 9 5.95517 9 6.75C9 7.66479 9.32864 8.44724 9.94388 8.98557L9.96267 9.00201L9.98033 9.01967C10.6442 9.68351 11.4552 10 12.25 10C13.0756 10 13.9534 9.66429 14.4856 9.05612L14.502 9.03733L14.5197 9.01967C15.1835 8.35583 15.5 7.54483 15.5 6.75C15.5 5.92439 15.1643 5.04658 14.5561 4.51443L14.5373 4.49799L14.5197 4.48033C13.8558 3.81649 13.0448 3.5 12.25 3.5Z" fill="#BDC3C7"/>
<path fill-rule="evenodd" clip-rule="evenodd" d="M8.25 15.5C7.45517 15.5 6.64417 15.8165 5.98033 16.4803L5.96267 16.498L5.94388 16.5144C5.32864 17.0528 5 17.8352 5 18.75V21.75H3.5V18.75C3.5 17.4731 3.96531 16.2629 4.93719 15.4022C5.87064 14.4775 7.05233 14 8.25 14H16.25C17.5269 14 18.7371 14.4653 19.5978 15.4372C20.5225 16.3706 21 17.5523 21 18.75V21.75H19.5V18.75C19.5 17.9552 19.1835 17.1442 18.5197 16.4803L18.502 16.4627L18.4856 16.4439C17.9472 15.8286 17.1648 15.5 16.25 15.5H8.25Z" fill="#BDC3C7"/>
</g>
</svg>
